<svg width="114" height="163" viewBox="0 0 114 163" fill="none" xmlns="http://www.w3.org/2000/svg">
<path d="M43.167 28.5097C43.0722 8.82374 59.0097 0 59.0097 0C59.0097 0 64.3016 23.2221 82.6646 45.7037C104.071 71.9129 114 86.461 114 105.415C114 137.215 88.4795 162.996 57 162.996C25.5205 162.996 0 137.219 0 105.419C0 73.8973 28.1355 35.1202 34.7947 28.7552C34.7947 28.7552 35.1777 37.504 39.3782 49.6268C43.1464 60.5057 42.4133 72.3871 37.7433 82.8999C35.0212 89.0278 32.9126 96.616 32.9126 105.415C32.9126 118.852 43.6982 129.748 57 129.748C70.3018 129.748 80.3419 117.766 80.3419 105.415C80.3419 81.4979 43.3029 57.918 43.167 28.5097Z" fill="url(#paint0_linear)"/>
<path d="M78.6453 96.1625C79.7201 99.2494 80.3419 102.332 80.3419 105.419C80.3419 117.77 70.3018 129.752 57 129.752C43.6982 129.752 32.9126 118.856 32.9126 105.419C32.9126 96.6201 35.0212 89.0361 37.7433 82.904C42.4133 72.3912 43.1464 60.5056 39.3782 49.6309C35.1777 37.5081 34.7947 28.7593 34.7947 28.7593C28.1355 35.1202 0 73.8972 0 105.419C0 124.93 9.60776 142.17 24.2974 152.583C62.3166 161.157 92.3753 130.513 78.6453 96.1625Z" fill="url(#paint1_linear)"/>
<defs>
<linearGradient id="paint0_linear" x1="0" y1="81.4997" x2="114.001" y2="81.4997" gradientUnits="userSpaceOnUse">
<stop offset="0.333333" stop-color="#E7E7E7"/>
<stop offset="0.6756" stop-color="#F1F1F1"/>
<stop offset="0.912" stop-color="#F4F4F4"/>
</linearGradient>
<linearGradient id="paint1_linear" x1="68.3739" y1="142.912" x2="-0.0292783" y2="56.2432" gradientUnits="userSpaceOnUse">
<stop stop-color="#737373"/>
<stop offset="0.4" stop-color="#C8C8C8" stop-opacity="0"/>
</linearGradient>
</defs>
</svg>
